<svg xmlns="http://www.w3.org/2000/svg" viewBox="0 0 120 120" width="120" height="120">
  <g stroke="#1C1C1C" stroke-width="5" stroke-linejoin="round" stroke-linecap="round">
    <circle cx="60" cy="98" r="9" fill="#F06292"/>
    <circle cx="60" cy="22" r="6" fill="#F06292"/>
    <path d="M60 28 C40 28 34 44 34 62 L34 84 L86 84 L86 62 C86 44 80 28 60 28 Z" fill="#C2185B"/>
    <path d="M34 84 L25 90 Q22 96 29 96 L91 96 Q98 96 95 90 L86 84 Z" fill="#F06292"/>
    <path d="M60 71 C47 63 45 56 49 52 C52 48.5 57.5 49.5 60 54 C62.5 49.5 68 48.5 71 52 C75 56 73 63 60 71 Z" fill="#FFB3CF" stroke-width="4"/>
  </g>
  <path d="M42 64 C42 50 45 41 52 37" fill="none" stroke="#E8558C" stroke-width="4" stroke-linecap="round"/>
</svg>
